<?xml version="1.0" encoding="UTF-8" standalone="no"?>
<!DOCTYPE svg PUBLIC "-//W3C//DTD SVG 1.1//EN"
 "http://www.w3.org/Graphics/SVG/1.1/DTD/svg11.dtd">
<!-- Generated by graphviz version 2.40.1 (20161225.0304)
 -->
<!-- Title: G Pages: 1 -->
<svg width="202pt" height="296pt"
 viewBox="0.00 0.00 201.74 296.00" xmlns="http://www.w3.org/2000/svg" xmlns:xlink="http://www.w3.org/1999/xlink">
<g id="graph0" class="graph" transform="scale(1 1) rotate(0) translate(4 292)">
<title>G</title>
<polygon fill="#ffffff" stroke="transparent" points="-4,4 -4,-292 197.7372,-292 197.7372,4 -4,4"/>
<!-- Received -->
<g id="node1" class="node">
<title>Received</title>
<ellipse fill="#00ffff" stroke="#00ffff" cx="116.2042" cy="-270" rx="46.9284" ry="18"/>
<text text-anchor="middle" x="116.2042" y="-265.8" font-family="Times,serif" font-size="14.00" fill="#000000">Received</text>
</g>
<!-- CheckSpam -->
<g id="node2" class="node">
<title>CheckSpam</title>
<ellipse fill="#ffd700" stroke="#ffd700" cx="116.2042" cy="-186" rx="57.9062" ry="18"/>
<text text-anchor="middle" x="116.2042" y="-181.8" font-family="Times,serif" font-size="14.00" fill="#000000">CheckSpam</text>
</g>
<!-- Received&#45;&gt;CheckSpam -->
<g id="edge1" class="edge">
<title>Received&#45;&gt;CheckSpam</title>
<path fill="none" stroke="#000000" d="M116.2042,-251.7733C116.2042,-240.8758 116.2042,-226.7946 116.2042,-214.4587"/>
<polygon fill="#000000" stroke="#000000" points="119.7043,-214.1911 116.2042,-204.1912 112.7043,-214.1912 119.7043,-214.1911"/>
<text text-anchor="middle" x="141.4697" y="-225" font-family="Times,serif" font-size="10.00" fill="#000000">NotDetected</text>
</g>
<!-- CheckNormal -->
<g id="node3" class="node">
<title>CheckNormal</title>
<ellipse fill="#ffd700" stroke="#ffd700" cx="65.2042" cy="-102" rx="65.4091" ry="18"/>
<text text-anchor="middle" x="65.2042" y="-97.8" font-family="Times,serif" font-size="14.00" fill="#000000">CheckNormal</text>
</g>
<!-- CheckSpam&#45;&gt;CheckNormal -->
<g id="edge2" class="edge">
<title>CheckSpam&#45;&gt;CheckNormal</title>
<path fill="none" stroke="#ff0000" d="M105.3885,-168.1858C98.424,-156.7149 89.2427,-141.5928 81.4145,-128.6992"/>
<polygon fill="#ff0000" stroke="#ff0000" points="84.186,-126.52 76.0044,-119.7886 78.2025,-130.1529 84.186,-126.52"/>
<text text-anchor="middle" x="119.4697" y="-141" font-family="Times,serif" font-size="10.00" fill="#000000">NotDetected</text>
</g>
<!-- Success -->
<g id="node4" class="node">
<title>Success</title>
<ellipse fill="#00ff00" stroke="#00ff00" cx="147.2042" cy="-18" rx="41.7095" ry="18"/>
<text text-anchor="middle" x="147.2042" y="-13.8" font-family="Times,serif" font-size="14.00" fill="#000000">Success</text>
</g>
<!-- CheckSpam&#45;&gt;Success -->
<g id="edge3" class="edge">
<title>CheckSpam&#45;&gt;Success</title>
<path fill="none" stroke="#00ff00" d="M136.6388,-168.8002C141.7005,-163.3592 146.4581,-156.9374 149.2042,-150 162.5347,-116.3246 158.6459,-73.927 153.7166,-46.4068"/>
<polygon fill="#00ff00" stroke="#00ff00" points="157.0921,-45.4306 151.7365,-36.289 150.2224,-46.7751 157.0921,-45.4306"/>
<text text-anchor="middle" x="175.9707" y="-99" font-family="Times,serif" font-size="10.00" fill="#000000">Detected</text>
</g>
<!-- CheckNormal&#45;&gt;Success -->
<g id="edge4" class="edge">
<title>CheckNormal&#45;&gt;Success</title>
<path fill="none" stroke="#00ff00" d="M82.1947,-84.5951C94.2273,-72.2691 110.5197,-55.5792 123.7839,-41.9915"/>
<polygon fill="#00ff00" stroke="#00ff00" points="126.3142,-44.41 130.7951,-34.8094 121.3052,-39.5202 126.3142,-44.41"/>
<text text-anchor="middle" x="127.9707" y="-57" font-family="Times,serif" font-size="10.00" fill="#000000">Detected</text>
</g>
<!-- Fail -->
<g id="node5" class="node">
<title>Fail</title>
<ellipse fill="#ff0000" stroke="#ff0000" cx="41.2042" cy="-18" rx="27" ry="18"/>
<text text-anchor="middle" x="41.2042" y="-13.8" font-family="Times,serif" font-size="14.00" fill="#000000">Fail</text>
</g>
<!-- CheckNormal&#45;&gt;Fail -->
<g id="edge5" class="edge">
<title>CheckNormal&#45;&gt;Fail</title>
<path fill="none" stroke="#ff0000" d="M51.5024,-84.229C47.9593,-78.6838 44.6019,-72.3494 42.6732,-66 40.8104,-59.8674 39.9339,-53.0896 39.6193,-46.607"/>
<polygon fill="#ff0000" stroke="#ff0000" points="43.116,-46.117 39.5455,-36.142 36.1162,-46.1665 43.116,-46.117"/>
<text text-anchor="middle" x="68.4697" y="-57" font-family="Times,serif" font-size="10.00" fill="#000000">NotDetected</text>
</g>
</g>
</svg>
